<?xml version="1.0" encoding="UTF-8"?>
<svg version="1.1" xmlns="http://www.w3.org/2000/svg" width="192" height="192">
<path d="M0 0 C1.28964661 -0.00571014 2.57929321 -0.01142029 3.90802002 -0.01730347 C5.33013906 -0.01854868 6.75225822 -0.0196738 8.17437744 -0.02069092 C9.67773561 -0.02532221 11.1810926 -0.03034729 12.68444824 -0.03573608 C16.76313834 -0.04883234 20.841812 -0.05529965 24.92051983 -0.05974674 C27.47128964 -0.06268202 30.022055 -0.0667877 32.57282257 -0.07125092 C40.56103994 -0.0849187 48.54924709 -0.09458881 56.53747535 -0.09845281 C65.74486238 -0.10293156 74.95210081 -0.12047399 84.15944266 -0.1494534 C91.28574289 -0.17110091 98.41200139 -0.18115873 105.53833413 -0.18249393 C109.79026017 -0.18353978 114.04204639 -0.18940066 118.29393768 -0.20731354 C122.29620897 -0.22384735 126.29823611 -0.22592413 130.30052948 -0.21717453 C131.76418717 -0.21640698 133.22785829 -0.22070944 134.69148254 -0.23063278 C143.79761868 -0.28871996 151.56270274 -0.00187445 159.425354 4.89044189 C165.31340857 10.9467266 166.7313583 17.27257836 166.7532959 25.52758789 C166.75900604 26.8172345 166.76471619 28.1068811 166.77059937 29.43560791 C166.77184458 30.85772695 166.7729697 32.27984611 166.77398682 33.70196533 C166.77861811 35.2053235 166.78364319 36.70868049 166.78903198 38.21203613 C166.80212824 42.29072623 166.80859555 46.36939989 166.81304264 50.44810772 C166.81597792 52.99887753 166.82008359 55.5496429 166.82454681 58.10041046 C166.8382146 66.08862783 166.8478847 74.07683498 166.8517487 82.06506324 C166.85622746 91.27245027 166.87376988 100.4796887 166.9027493 109.68703055 C166.9243968 116.81333078 166.93445463 123.93958928 166.93578982 131.06592202 C166.93683568 135.31784806 166.94269656 139.56963428 166.96060944 143.82152557 C166.97714325 147.82379686 166.97922003 151.82582401 166.97047043 155.82811737 C166.96970288 157.29177507 166.97400534 158.75544618 166.98392868 160.21907043 C167.09673464 177.90328977 167.09673464 177.90328977 161.300354 184.95294189 C154.4702582 190.5123222 149.96395281 192.25766199 141.22570801 192.28088379 C139.9360614 192.28659393 138.64641479 192.29230408 137.31768799 192.29818726 C135.89556894 192.29943247 134.47344979 192.30055759 133.05133057 192.30157471 C131.5479724 192.306206 130.04461541 192.31123108 128.54125977 192.31661987 C124.46256967 192.32971613 120.38389601 192.33618344 116.30518818 192.34063053 C113.75441837 192.34356581 111.203653 192.34767149 108.65288544 192.3521347 C100.66466806 192.36580249 92.67646091 192.37547259 84.68823266 192.3793366 C75.48084563 192.38381535 66.2736072 192.40135777 57.06626534 192.43033719 C49.93996512 192.4519847 42.81370662 192.46204252 35.68737388 192.46337771 C31.43544784 192.46442357 27.18366162 192.47028445 22.93177032 192.48819733 C18.92949904 192.50473114 14.92747189 192.50680792 10.92517853 192.49805832 C9.46152083 192.49729077 7.99784972 192.50159323 6.53422546 192.51151657 C-11.14999387 192.62432253 -11.14999387 192.62432253 -18.199646 186.82794189 C-23.7590263 179.99784609 -25.50436609 175.4915407 -25.52758789 166.7532959 C-25.53329803 165.46364929 -25.53900818 164.17400269 -25.54489136 162.84527588 C-25.54613657 161.42315684 -25.5472617 160.00103768 -25.54827881 158.57891846 C-25.5529101 157.07556029 -25.55793518 155.5722033 -25.56332397 154.06884766 C-25.57642023 149.99015756 -25.58288754 145.9114839 -25.58733463 141.83277607 C-25.59026992 139.28200626 -25.59437559 136.73124089 -25.59883881 134.18047333 C-25.61250659 126.19225595 -25.6221767 118.2040488 -25.6260407 110.21582055 C-25.63051945 101.00843352 -25.64806188 91.80119509 -25.67704129 82.59385324 C-25.6986888 75.46755301 -25.70874662 68.34129451 -25.71008182 61.21496177 C-25.71112767 56.96303573 -25.71698855 52.71124951 -25.73490143 48.45935822 C-25.75143524 44.45708693 -25.75351202 40.45505978 -25.74476242 36.45276642 C-25.74399487 34.98910872 -25.74829733 33.52543761 -25.75822067 32.06181335 C-25.81630785 22.95567722 -25.52946234 15.19059316 -20.637146 7.32794189 C-14.5808613 1.43988732 -8.25500953 0.0219376 0 0 Z " fill="#030403" transform="translate(25.38714599609375,-0.14044189453125)"/>
<path d="M0 0 C16.83 0 33.66 0 51 0 C51 16.83 51 33.66 51 51 C34.17 51 17.34 51 0 51 C0 34.17 0 17.34 0 0 Z " fill="#F9F9F9" transform="translate(71,10)"/>
<path d="M0 0 C1.2309137 0.00453186 1.2309137 0.00453186 2.48669434 0.00915527 C5.53683137 0.02478978 8.58678838 0.06667372 11.63671875 0.10546875 C21.87703125 0.19828125 21.87703125 0.19828125 32.32421875 0.29296875 C32.32421875 17.12296875 32.32421875 33.95296875 32.32421875 51.29296875 C15.49421875 51.29296875 -1.33578125 51.29296875 -18.67578125 51.29296875 C-18.75828125 44.48671875 -18.84078125 37.68046875 -18.92578125 30.66796875 C-18.96219727 28.52989746 -18.99861328 26.39182617 -19.03613281 24.18896484 C-19.04782267 22.48145551 -19.0580138 20.77393498 -19.06640625 19.06640625 C-19.08687012 18.19024658 -19.10733398 17.31408691 -19.12841797 16.41137695 C-19.13155579 10.88096533 -18.4959233 7.59490848 -14.67578125 3.29296875 C-10.2345184 -0.55086919 -5.57869969 -0.09715613 0 0 Z " fill="#FBFBFB" transform="translate(28.67578125,9.70703125)"/>
<path d="M0 0 C16.83 0 33.66 0 51 0 C51.061875 6.64125 51.12375 13.2825 51.1875 20.125 C51.22846802 23.25379639 51.22846802 23.25379639 51.27026367 26.44580078 C51.27903139 28.11229881 51.28667465 29.77880329 51.29296875 31.4453125 C51.30831665 32.29988037 51.32366455 33.15444824 51.33947754 34.03491211 C51.34168031 39.08806217 50.9918609 42.72523858 48 47 C42.99861147 51.56257048 38.64575723 51.54055378 32.2265625 51.390625 C31.40696045 51.38659668 30.5873584 51.38256836 29.74291992 51.37841797 C26.70338308 51.35760885 23.66416728 51.30176364 20.625 51.25 C13.81875 51.1675 7.0125 51.085 0 51 C0 34.17 0 17.34 0 0 Z " fill="#68A762" transform="translate(131,131)"/>
<path d="M0 0 C16.5 0 33 0 50 0 C50 16.83 50 33.66 50 51 C33.5 51 17 51 0 51 C0 34.17 0 17.34 0 0 Z " fill="#CEAE35" transform="translate(71,70)"/>
<path d="M0 0 C6.97125 -0.103125 13.9425 -0.20625 21.125 -0.3125 C23.31527832 -0.35802002 25.50555664 -0.40354004 27.76220703 -0.45043945 C29.51072663 -0.46505126 31.25926332 -0.47779029 33.0078125 -0.48828125 C33.90556396 -0.51386108 34.80331543 -0.53944092 35.72827148 -0.5657959 C40.12491931 -0.56884151 43.06660397 -0.4209005 46.56201172 2.40551758 C49.60693796 5.64589722 50.12579487 6.97179453 50.11352539 11.26611328 C50.11340454 12.15919189 50.11328369 13.05227051 50.11315918 13.97241211 C50.10804321 14.91221924 50.10292725 15.85202637 50.09765625 16.8203125 C50.09664917 17.68325928 50.09564209 18.54620605 50.09460449 19.43530273 C50.08936435 22.6652153 50.07540312 25.89510896 50.0625 29.125 C50.0315625 39.953125 50.0315625 39.953125 50 51 C33.5 51 17 51 0 51 C0 34.17 0 17.34 0 0 Z " fill="#FBFBFB" transform="translate(131,10)"/>
<path d="M0 0 C16.5 0 33 0 50 0 C50 16.5 50 33 50 50 C33.5 50 17 50 0 50 C0 33.5 0 17 0 0 Z " fill="#6AAA64" transform="translate(71,131)"/>
<path d="M0 0 C16.5 0 33 0 50 0 C50 16.5 50 33 50 50 C33.5 50 17 50 0 50 C0 33.5 0 17 0 0 Z " fill="#6AAA64" transform="translate(131,71)"/>
<path d="M0 0 C16.5 0 33 0 50 0 C50 16.5 50 33 50 50 C33.5 50 17 50 0 50 C0 33.5 0 17 0 0 Z " fill="#FEFEFE" transform="translate(11,71)"/>
<path d="M0 0 C16.5 0 33 0 50 0 C50 16.5 50 33 50 50 C42.843125 50.0825 35.68625 50.165 28.3125 50.25 C26.06091064 50.28641602 23.80932129 50.32283203 21.48950195 50.36035156 C19.69743808 50.37203808 17.90536357 50.38222999 16.11328125 50.390625 C15.18882202 50.41108887 14.26436279 50.43155273 13.31188965 50.45263672 C9.00696554 50.4549678 6.66139784 50.40926391 2.93041992 48.10058594 C0.22710077 45.1589699 -0.12463674 43.62285891 -0.11352539 39.73388672 C-0.11340454 38.84080811 -0.11328369 37.94772949 -0.11315918 37.02758789 C-0.10804321 36.08778076 -0.10292725 35.14797363 -0.09765625 34.1796875 C-0.09664917 33.31674072 -0.09564209 32.45379395 -0.09460449 31.56469727 C-0.08936435 28.3347847 -0.07540312 25.10489104 -0.0625 21.875 C-0.041875 14.65625 -0.02125 7.4375 0 0 Z " fill="#69A963" transform="translate(11,131)"/>
</svg>
